<mxfile host="app.diagrams.net" modified="2023-11-26T15:55:32.048Z" agent="Mozilla/5.0 (Windows NT 10.0; Win64; x64) AppleWebKit/537.36 (KHTML, like Gecko) Chrome/119.0.0.0 Safari/537.36" etag="BmgwG1K_T6HByV7yZDhN" version="22.1.4" type="github">
  <diagram name="페이지-1" id="mVnuLhLxYG62JDdGf2MF">
    <mxGraphModel dx="1434" dy="758" grid="1" gridSize="10" guides="1" tooltips="1" connect="1" arrows="1" fold="1" page="1" pageScale="1" pageWidth="827" pageHeight="1169" math="0" shadow="0">
      <root>
        <mxCell id="0" />
        <mxCell id="1" parent="0" />
        <mxCell id="0pB-6FV18-jfpaeDJ1VC-1" style="edgeStyle=orthogonalEdgeStyle;rounded=0;orthogonalLoop=1;jettySize=auto;html=1;exitX=0.5;exitY=0;exitDx=0;exitDy=0;endArrow=open;endFill=0;" edge="1" parent="1" source="0pB-6FV18-jfpaeDJ1VC-2" target="0pB-6FV18-jfpaeDJ1VC-8">
          <mxGeometry relative="1" as="geometry" />
        </mxCell>
        <mxCell id="0pB-6FV18-jfpaeDJ1VC-2" value="CSVImporter" style="swimlane;fontStyle=1;align=center;verticalAlign=top;childLayout=stackLayout;horizontal=1;startSize=26;horizontalStack=0;resizeParent=1;resizeParentMax=0;resizeLast=0;collapsible=1;marginBottom=0;whiteSpace=wrap;html=1;" vertex="1" parent="1">
          <mxGeometry x="205" y="520" width="160" height="138" as="geometry" />
        </mxCell>
        <mxCell id="0pB-6FV18-jfpaeDJ1VC-3" value="- item : String" style="text;strokeColor=none;fillColor=none;align=left;verticalAlign=top;spacingLeft=4;spacingRight=4;overflow=hidden;rotatable=0;points=[[0,0.5],[1,0.5]];portConstraint=eastwest;whiteSpace=wrap;html=1;" vertex="1" parent="0pB-6FV18-jfpaeDJ1VC-2">
          <mxGeometry y="26" width="160" height="26" as="geometry" />
        </mxCell>
        <mxCell id="0pB-6FV18-jfpaeDJ1VC-4" value="- count : int" style="text;strokeColor=none;fillColor=none;align=left;verticalAlign=top;spacingLeft=4;spacingRight=4;overflow=hidden;rotatable=0;points=[[0,0.5],[1,0.5]];portConstraint=eastwest;whiteSpace=wrap;html=1;" vertex="1" parent="0pB-6FV18-jfpaeDJ1VC-2">
          <mxGeometry y="52" width="160" height="26" as="geometry" />
        </mxCell>
        <mxCell id="0pB-6FV18-jfpaeDJ1VC-5" value="- expDate : LocalDate" style="text;strokeColor=none;fillColor=none;align=left;verticalAlign=top;spacingLeft=4;spacingRight=4;overflow=hidden;rotatable=0;points=[[0,0.5],[1,0.5]];portConstraint=eastwest;whiteSpace=wrap;html=1;" vertex="1" parent="0pB-6FV18-jfpaeDJ1VC-2">
          <mxGeometry y="78" width="160" height="26" as="geometry" />
        </mxCell>
        <mxCell id="0pB-6FV18-jfpaeDJ1VC-6" value="" style="line;strokeWidth=1;fillColor=none;align=left;verticalAlign=middle;spacingTop=-1;spacingLeft=3;spacingRight=3;rotatable=0;labelPosition=right;points=[];portConstraint=eastwest;strokeColor=inherit;" vertex="1" parent="0pB-6FV18-jfpaeDJ1VC-2">
          <mxGeometry y="104" width="160" height="8" as="geometry" />
        </mxCell>
        <mxCell id="0pB-6FV18-jfpaeDJ1VC-7" value="+ CSVParser()&amp;nbsp; : void" style="text;strokeColor=none;fillColor=none;align=left;verticalAlign=top;spacingLeft=4;spacingRight=4;overflow=hidden;rotatable=0;points=[[0,0.5],[1,0.5]];portConstraint=eastwest;whiteSpace=wrap;html=1;" vertex="1" parent="0pB-6FV18-jfpaeDJ1VC-2">
          <mxGeometry y="112" width="160" height="26" as="geometry" />
        </mxCell>
        <mxCell id="0pB-6FV18-jfpaeDJ1VC-8" value="&lt;font style=&quot;font-size: 11px; font-weight: normal;&quot;&gt;&amp;lt;&amp;lt;Interface&amp;gt;&amp;gt;&lt;/font&gt;&lt;br&gt;InputBoundary" style="swimlane;fontStyle=1;align=center;verticalAlign=top;childLayout=stackLayout;horizontal=1;startSize=40;horizontalStack=0;resizeParent=1;resizeParentMax=0;resizeLast=0;collapsible=1;marginBottom=0;whiteSpace=wrap;html=1;" vertex="1" parent="1">
          <mxGeometry x="150" y="216" width="270" height="204" as="geometry" />
        </mxCell>
        <mxCell id="0pB-6FV18-jfpaeDJ1VC-9" value="" style="line;strokeWidth=1;fillColor=none;align=left;verticalAlign=middle;spacingTop=-1;spacingLeft=3;spacingRight=3;rotatable=0;labelPosition=right;points=[];portConstraint=eastwest;strokeColor=inherit;" vertex="1" parent="0pB-6FV18-jfpaeDJ1VC-8">
          <mxGeometry y="40" width="270" height="8" as="geometry" />
        </mxCell>
        <mxCell id="0pB-6FV18-jfpaeDJ1VC-10" value="+ addNewItem(String) : void" style="text;strokeColor=none;fillColor=none;align=left;verticalAlign=top;spacingLeft=4;spacingRight=4;overflow=hidden;rotatable=0;points=[[0,0.5],[1,0.5]];portConstraint=eastwest;whiteSpace=wrap;html=1;" vertex="1" parent="0pB-6FV18-jfpaeDJ1VC-8">
          <mxGeometry y="48" width="270" height="26" as="geometry" />
        </mxCell>
        <mxCell id="0pB-6FV18-jfpaeDJ1VC-11" value="+ addStock(String, int) : void" style="text;strokeColor=none;fillColor=none;align=left;verticalAlign=top;spacingLeft=4;spacingRight=4;overflow=hidden;rotatable=0;points=[[0,0.5],[1,0.5]];portConstraint=eastwest;whiteSpace=wrap;html=1;" vertex="1" parent="0pB-6FV18-jfpaeDJ1VC-8">
          <mxGeometry y="74" width="270" height="26" as="geometry" />
        </mxCell>
        <mxCell id="0pB-6FV18-jfpaeDJ1VC-12" value="+ addStock(String, int, LocalDate) : void" style="text;strokeColor=none;fillColor=none;align=left;verticalAlign=top;spacingLeft=4;spacingRight=4;overflow=hidden;rotatable=0;points=[[0,0.5],[1,0.5]];portConstraint=eastwest;whiteSpace=wrap;html=1;" vertex="1" parent="0pB-6FV18-jfpaeDJ1VC-8">
          <mxGeometry y="100" width="270" height="26" as="geometry" />
        </mxCell>
        <mxCell id="0pB-6FV18-jfpaeDJ1VC-13" value="+ removeStock(String) : void" style="text;strokeColor=none;fillColor=none;align=left;verticalAlign=top;spacingLeft=4;spacingRight=4;overflow=hidden;rotatable=0;points=[[0,0.5],[1,0.5]];portConstraint=eastwest;whiteSpace=wrap;html=1;" vertex="1" parent="0pB-6FV18-jfpaeDJ1VC-8">
          <mxGeometry y="126" width="270" height="26" as="geometry" />
        </mxCell>
        <mxCell id="0pB-6FV18-jfpaeDJ1VC-14" value="+ requestItemInfo(String) : boolean" style="text;strokeColor=none;fillColor=none;align=left;verticalAlign=top;spacingLeft=4;spacingRight=4;overflow=hidden;rotatable=0;points=[[0,0.5],[1,0.5]];portConstraint=eastwest;whiteSpace=wrap;html=1;" vertex="1" parent="0pB-6FV18-jfpaeDJ1VC-8">
          <mxGeometry y="152" width="270" height="26" as="geometry" />
        </mxCell>
        <mxCell id="0pB-6FV18-jfpaeDJ1VC-15" value="+ sell(String, int) : void" style="text;strokeColor=none;fillColor=none;align=left;verticalAlign=top;spacingLeft=4;spacingRight=4;overflow=hidden;rotatable=0;points=[[0,0.5],[1,0.5]];portConstraint=eastwest;whiteSpace=wrap;html=1;" vertex="1" parent="0pB-6FV18-jfpaeDJ1VC-8">
          <mxGeometry y="178" width="270" height="26" as="geometry" />
        </mxCell>
        <mxCell id="0pB-6FV18-jfpaeDJ1VC-16" style="edgeStyle=orthogonalEdgeStyle;rounded=0;orthogonalLoop=1;jettySize=auto;html=1;exitX=0.5;exitY=1;exitDx=0;exitDy=0;entryX=0.5;entryY=0;entryDx=0;entryDy=0;endArrow=open;endFill=0;" edge="1" parent="1" source="0pB-6FV18-jfpaeDJ1VC-18" target="0pB-6FV18-jfpaeDJ1VC-30">
          <mxGeometry relative="1" as="geometry">
            <Array as="points">
              <mxPoint x="765" y="669" />
              <mxPoint x="645" y="669" />
            </Array>
          </mxGeometry>
        </mxCell>
        <mxCell id="0pB-6FV18-jfpaeDJ1VC-17" style="edgeStyle=orthogonalEdgeStyle;rounded=0;orthogonalLoop=1;jettySize=auto;html=1;exitX=0.5;exitY=1;exitDx=0;exitDy=0;entryX=0.5;entryY=0;entryDx=0;entryDy=0;endArrow=open;endFill=0;" edge="1" parent="1" source="0pB-6FV18-jfpaeDJ1VC-18" target="0pB-6FV18-jfpaeDJ1VC-31">
          <mxGeometry relative="1" as="geometry" />
        </mxCell>
        <mxCell id="0pB-6FV18-jfpaeDJ1VC-18" value="Inventory" style="swimlane;fontStyle=1;align=center;verticalAlign=top;childLayout=stackLayout;horizontal=1;startSize=30;horizontalStack=0;resizeParent=1;resizeParentMax=0;resizeLast=0;collapsible=1;marginBottom=0;whiteSpace=wrap;html=1;" vertex="1" parent="1">
          <mxGeometry x="630" y="433" width="270" height="194" as="geometry" />
        </mxCell>
        <mxCell id="0pB-6FV18-jfpaeDJ1VC-19" value="" style="line;strokeWidth=1;fillColor=none;align=left;verticalAlign=middle;spacingTop=-1;spacingLeft=3;spacingRight=3;rotatable=0;labelPosition=right;points=[];portConstraint=eastwest;strokeColor=inherit;" vertex="1" parent="0pB-6FV18-jfpaeDJ1VC-18">
          <mxGeometry y="30" width="270" height="8" as="geometry" />
        </mxCell>
        <mxCell id="0pB-6FV18-jfpaeDJ1VC-20" value="+ addProduct(String, Long) : void" style="text;strokeColor=none;fillColor=none;align=left;verticalAlign=top;spacingLeft=4;spacingRight=4;overflow=hidden;rotatable=0;points=[[0,0.5],[1,0.5]];portConstraint=eastwest;whiteSpace=wrap;html=1;" vertex="1" parent="0pB-6FV18-jfpaeDJ1VC-18">
          <mxGeometry y="38" width="270" height="26" as="geometry" />
        </mxCell>
        <mxCell id="0pB-6FV18-jfpaeDJ1VC-21" value="+ addStock(String, int) : void" style="text;strokeColor=none;fillColor=none;align=left;verticalAlign=top;spacingLeft=4;spacingRight=4;overflow=hidden;rotatable=0;points=[[0,0.5],[1,0.5]];portConstraint=eastwest;whiteSpace=wrap;html=1;" vertex="1" parent="0pB-6FV18-jfpaeDJ1VC-18">
          <mxGeometry y="64" width="270" height="26" as="geometry" />
        </mxCell>
        <mxCell id="0pB-6FV18-jfpaeDJ1VC-22" value="+ addStock(String, int, LocalDate) : void" style="text;strokeColor=none;fillColor=none;align=left;verticalAlign=top;spacingLeft=4;spacingRight=4;overflow=hidden;rotatable=0;points=[[0,0.5],[1,0.5]];portConstraint=eastwest;whiteSpace=wrap;html=1;" vertex="1" parent="0pB-6FV18-jfpaeDJ1VC-18">
          <mxGeometry y="90" width="270" height="26" as="geometry" />
        </mxCell>
        <mxCell id="0pB-6FV18-jfpaeDJ1VC-23" value="+ findProduct(String) : List&amp;lt;Stock&amp;gt;" style="text;strokeColor=none;fillColor=none;align=left;verticalAlign=top;spacingLeft=4;spacingRight=4;overflow=hidden;rotatable=0;points=[[0,0.5],[1,0.5]];portConstraint=eastwest;whiteSpace=wrap;html=1;" vertex="1" parent="0pB-6FV18-jfpaeDJ1VC-18">
          <mxGeometry y="116" width="270" height="26" as="geometry" />
        </mxCell>
        <mxCell id="0pB-6FV18-jfpaeDJ1VC-24" value="+ removeProduct(String) : void" style="text;strokeColor=none;fillColor=none;align=left;verticalAlign=top;spacingLeft=4;spacingRight=4;overflow=hidden;rotatable=0;points=[[0,0.5],[1,0.5]];portConstraint=eastwest;whiteSpace=wrap;html=1;" vertex="1" parent="0pB-6FV18-jfpaeDJ1VC-18">
          <mxGeometry y="142" width="270" height="26" as="geometry" />
        </mxCell>
        <mxCell id="0pB-6FV18-jfpaeDJ1VC-25" value="+ sell(String, int) : void" style="text;strokeColor=none;fillColor=none;align=left;verticalAlign=top;spacingLeft=4;spacingRight=4;overflow=hidden;rotatable=0;points=[[0,0.5],[1,0.5]];portConstraint=eastwest;whiteSpace=wrap;html=1;" vertex="1" parent="0pB-6FV18-jfpaeDJ1VC-18">
          <mxGeometry y="168" width="270" height="26" as="geometry" />
        </mxCell>
        <mxCell id="0pB-6FV18-jfpaeDJ1VC-26" value="&lt;font style=&quot;font-size: 11px; font-weight: normal;&quot;&gt;&amp;lt;&amp;lt;Interface&amp;gt;&amp;gt;&lt;/font&gt;&lt;br&gt;OutputBoundary" style="swimlane;fontStyle=1;align=center;verticalAlign=top;childLayout=stackLayout;horizontal=1;startSize=40;horizontalStack=0;resizeParent=1;resizeParentMax=0;resizeLast=0;collapsible=1;marginBottom=0;whiteSpace=wrap;html=1;" vertex="1" parent="1">
          <mxGeometry x="470" y="260" width="270" height="100" as="geometry" />
        </mxCell>
        <mxCell id="0pB-6FV18-jfpaeDJ1VC-27" value="" style="line;strokeWidth=1;fillColor=none;align=left;verticalAlign=middle;spacingTop=-1;spacingLeft=3;spacingRight=3;rotatable=0;labelPosition=right;points=[];portConstraint=eastwest;strokeColor=inherit;" vertex="1" parent="0pB-6FV18-jfpaeDJ1VC-26">
          <mxGeometry y="40" width="270" height="8" as="geometry" />
        </mxCell>
        <mxCell id="0pB-6FV18-jfpaeDJ1VC-28" value="+ outputItemInfo(ItemDto) : void" style="text;strokeColor=none;fillColor=none;align=left;verticalAlign=top;spacingLeft=4;spacingRight=4;overflow=hidden;rotatable=0;points=[[0,0.5],[1,0.5]];portConstraint=eastwest;whiteSpace=wrap;html=1;" vertex="1" parent="0pB-6FV18-jfpaeDJ1VC-26">
          <mxGeometry y="48" width="270" height="26" as="geometry" />
        </mxCell>
        <mxCell id="0pB-6FV18-jfpaeDJ1VC-29" value="+ outputStockInfo(StockDto) : void" style="text;strokeColor=none;fillColor=none;align=left;verticalAlign=top;spacingLeft=4;spacingRight=4;overflow=hidden;rotatable=0;points=[[0,0.5],[1,0.5]];portConstraint=eastwest;whiteSpace=wrap;html=1;" vertex="1" parent="0pB-6FV18-jfpaeDJ1VC-26">
          <mxGeometry y="74" width="270" height="26" as="geometry" />
        </mxCell>
        <mxCell id="0pB-6FV18-jfpaeDJ1VC-30" value="Product" style="html=1;whiteSpace=wrap;" vertex="1" parent="1">
          <mxGeometry x="590" y="710" width="110" height="50" as="geometry" />
        </mxCell>
        <mxCell id="0pB-6FV18-jfpaeDJ1VC-31" value="Stock" style="html=1;whiteSpace=wrap;" vertex="1" parent="1">
          <mxGeometry x="810" y="710" width="110" height="50" as="geometry" />
        </mxCell>
        <mxCell id="0pB-6FV18-jfpaeDJ1VC-32" value="" style="edgeStyle=orthogonalEdgeStyle;rounded=0;orthogonalLoop=1;jettySize=auto;html=1;endArrow=open;endFill=0;" edge="1" parent="1" source="0pB-6FV18-jfpaeDJ1VC-33" target="0pB-6FV18-jfpaeDJ1VC-31">
          <mxGeometry relative="1" as="geometry" />
        </mxCell>
        <mxCell id="0pB-6FV18-jfpaeDJ1VC-33" value="UndecayingStock" style="html=1;whiteSpace=wrap;" vertex="1" parent="1">
          <mxGeometry x="720" y="830" width="130" height="50" as="geometry" />
        </mxCell>
        <mxCell id="0pB-6FV18-jfpaeDJ1VC-34" value="" style="edgeStyle=orthogonalEdgeStyle;rounded=0;orthogonalLoop=1;jettySize=auto;html=1;exitX=0.5;exitY=0;exitDx=0;exitDy=0;endArrow=open;endFill=0;" edge="1" parent="1" source="0pB-6FV18-jfpaeDJ1VC-43" target="0pB-6FV18-jfpaeDJ1VC-31">
          <mxGeometry relative="1" as="geometry">
            <mxPoint x="945" y="830" as="sourcePoint" />
          </mxGeometry>
        </mxCell>
        <mxCell id="0pB-6FV18-jfpaeDJ1VC-35" style="edgeStyle=orthogonalEdgeStyle;rounded=0;orthogonalLoop=1;jettySize=auto;html=1;exitX=0.5;exitY=0;exitDx=0;exitDy=0;strokeColor=default;dashed=1;strokeWidth=1;endArrow=block;endFill=0;" edge="1" parent="1" source="0pB-6FV18-jfpaeDJ1VC-38" target="0pB-6FV18-jfpaeDJ1VC-8">
          <mxGeometry relative="1" as="geometry">
            <Array as="points">
              <mxPoint x="468" y="456" />
              <mxPoint x="350" y="456" />
            </Array>
          </mxGeometry>
        </mxCell>
        <mxCell id="0pB-6FV18-jfpaeDJ1VC-36" style="edgeStyle=orthogonalEdgeStyle;rounded=0;orthogonalLoop=1;jettySize=auto;html=1;exitX=1;exitY=0.5;exitDx=0;exitDy=0;endArrow=open;endFill=0;" edge="1" parent="1" source="0pB-6FV18-jfpaeDJ1VC-38" target="0pB-6FV18-jfpaeDJ1VC-18">
          <mxGeometry relative="1" as="geometry" />
        </mxCell>
        <mxCell id="0pB-6FV18-jfpaeDJ1VC-37" style="edgeStyle=orthogonalEdgeStyle;rounded=0;orthogonalLoop=1;jettySize=auto;html=1;exitX=0.75;exitY=0;exitDx=0;exitDy=0;endArrow=open;endFill=0;" edge="1" parent="1" source="0pB-6FV18-jfpaeDJ1VC-38" target="0pB-6FV18-jfpaeDJ1VC-26">
          <mxGeometry relative="1" as="geometry" />
        </mxCell>
        <mxCell id="0pB-6FV18-jfpaeDJ1VC-38" value="&lt;b&gt;Controller (Shop)&lt;/b&gt;" style="html=1;whiteSpace=wrap;" vertex="1" parent="1">
          <mxGeometry x="400" y="505" width="135" height="50" as="geometry" />
        </mxCell>
        <mxCell id="0pB-6FV18-jfpaeDJ1VC-39" style="edgeStyle=orthogonalEdgeStyle;rounded=0;orthogonalLoop=1;jettySize=auto;html=1;exitX=0.5;exitY=1;exitDx=0;exitDy=0;entryX=0.5;entryY=0;entryDx=0;entryDy=0;endArrow=open;endFill=0;" edge="1" parent="1" source="0pB-6FV18-jfpaeDJ1VC-40" target="0pB-6FV18-jfpaeDJ1VC-8">
          <mxGeometry relative="1" as="geometry" />
        </mxCell>
        <mxCell id="0pB-6FV18-jfpaeDJ1VC-40" value="&lt;b&gt;InputCLI&lt;/b&gt;" style="html=1;whiteSpace=wrap;" vertex="1" parent="1">
          <mxGeometry x="230" y="120" width="110" height="50" as="geometry" />
        </mxCell>
        <mxCell id="0pB-6FV18-jfpaeDJ1VC-41" style="edgeStyle=orthogonalEdgeStyle;rounded=0;orthogonalLoop=1;jettySize=auto;html=1;exitX=0.5;exitY=1;exitDx=0;exitDy=0;entryX=0.5;entryY=0;entryDx=0;entryDy=0;endArrow=block;endFill=0;dashed=1;" edge="1" parent="1" source="0pB-6FV18-jfpaeDJ1VC-42" target="0pB-6FV18-jfpaeDJ1VC-26">
          <mxGeometry relative="1" as="geometry" />
        </mxCell>
        <mxCell id="0pB-6FV18-jfpaeDJ1VC-42" value="&lt;b&gt;OutputCLI&lt;/b&gt;" style="html=1;whiteSpace=wrap;" vertex="1" parent="1">
          <mxGeometry x="550" y="150" width="110" height="50" as="geometry" />
        </mxCell>
        <mxCell id="0pB-6FV18-jfpaeDJ1VC-43" value="DecayingStock" style="swimlane;fontStyle=0;childLayout=stackLayout;horizontal=1;startSize=26;fillColor=none;horizontalStack=0;resizeParent=1;resizeParentMax=0;resizeLast=0;collapsible=1;marginBottom=0;whiteSpace=wrap;html=1;" vertex="1" parent="1">
          <mxGeometry x="880" y="830" width="180" height="52" as="geometry" />
        </mxCell>
        <mxCell id="0pB-6FV18-jfpaeDJ1VC-44" value="+ expirationDate : LocalDate" style="text;strokeColor=none;fillColor=none;align=left;verticalAlign=top;spacingLeft=4;spacingRight=4;overflow=hidden;rotatable=0;points=[[0,0.5],[1,0.5]];portConstraint=eastwest;whiteSpace=wrap;html=1;" vertex="1" parent="0pB-6FV18-jfpaeDJ1VC-43">
          <mxGeometry y="26" width="180" height="26" as="geometry" />
        </mxCell>
        <mxCell id="0pB-6FV18-jfpaeDJ1VC-45" style="edgeStyle=orthogonalEdgeStyle;rounded=0;orthogonalLoop=1;jettySize=auto;html=1;exitX=0;exitY=0.5;exitDx=0;exitDy=0;entryX=1;entryY=0.5;entryDx=0;entryDy=0;endArrow=open;endFill=0;" edge="1" parent="1" source="0pB-6FV18-jfpaeDJ1VC-46" target="0pB-6FV18-jfpaeDJ1VC-21">
          <mxGeometry relative="1" as="geometry" />
        </mxCell>
        <mxCell id="0pB-6FV18-jfpaeDJ1VC-46" value="DecayingChecker" style="swimlane;fontStyle=1;align=center;verticalAlign=top;childLayout=stackLayout;horizontal=1;startSize=26;horizontalStack=0;resizeParent=1;resizeParentMax=0;resizeLast=0;collapsible=1;marginBottom=0;whiteSpace=wrap;html=1;" vertex="1" parent="1">
          <mxGeometry x="970" y="360" width="160" height="60" as="geometry" />
        </mxCell>
        <mxCell id="0pB-6FV18-jfpaeDJ1VC-47" value="" style="line;strokeWidth=1;fillColor=none;align=left;verticalAlign=middle;spacingTop=-1;spacingLeft=3;spacingRight=3;rotatable=0;labelPosition=right;points=[];portConstraint=eastwest;strokeColor=inherit;" vertex="1" parent="0pB-6FV18-jfpaeDJ1VC-46">
          <mxGeometry y="26" width="160" height="8" as="geometry" />
        </mxCell>
        <mxCell id="0pB-6FV18-jfpaeDJ1VC-48" value="+ disposeExpired() : void" style="text;strokeColor=none;fillColor=none;align=left;verticalAlign=top;spacingLeft=4;spacingRight=4;overflow=hidden;rotatable=0;points=[[0,0.5],[1,0.5]];portConstraint=eastwest;whiteSpace=wrap;html=1;" vertex="1" parent="0pB-6FV18-jfpaeDJ1VC-46">
          <mxGeometry y="34" width="160" height="26" as="geometry" />
        </mxCell>
        <mxCell id="0pB-6FV18-jfpaeDJ1VC-49" style="edgeStyle=orthogonalEdgeStyle;rounded=0;orthogonalLoop=1;jettySize=auto;html=1;exitX=0.5;exitY=1;exitDx=0;exitDy=0;entryX=0.5;entryY=0;entryDx=0;entryDy=0;endArrow=open;endFill=0;" edge="1" parent="1" source="0pB-6FV18-jfpaeDJ1VC-50" target="0pB-6FV18-jfpaeDJ1VC-46">
          <mxGeometry relative="1" as="geometry" />
        </mxCell>
        <mxCell id="0pB-6FV18-jfpaeDJ1VC-50" value="&lt;b&gt;TimeSimulator&lt;/b&gt;" style="html=1;whiteSpace=wrap;" vertex="1" parent="1">
          <mxGeometry x="995" y="230" width="110" height="50" as="geometry" />
        </mxCell>
        <mxCell id="0pB-6FV18-jfpaeDJ1VC-51" style="edgeStyle=orthogonalEdgeStyle;rounded=0;orthogonalLoop=1;jettySize=auto;html=1;exitX=1;exitY=0.5;exitDx=0;exitDy=0;entryX=0.75;entryY=0;entryDx=0;entryDy=0;endArrow=block;endFill=0;" edge="1" parent="1" source="0pB-6FV18-jfpaeDJ1VC-52" target="0pB-6FV18-jfpaeDJ1VC-55">
          <mxGeometry relative="1" as="geometry" />
        </mxCell>
        <mxCell id="0pB-6FV18-jfpaeDJ1VC-52" value="StockRepository" style="html=1;whiteSpace=wrap;" vertex="1" parent="1">
          <mxGeometry x="995" y="490" width="130" height="50" as="geometry" />
        </mxCell>
        <mxCell id="0pB-6FV18-jfpaeDJ1VC-53" style="edgeStyle=orthogonalEdgeStyle;rounded=0;orthogonalLoop=1;jettySize=auto;html=1;exitX=1;exitY=0.5;exitDx=0;exitDy=0;entryX=0.75;entryY=0;entryDx=0;entryDy=0;endArrow=block;endFill=0;" edge="1" parent="1" source="0pB-6FV18-jfpaeDJ1VC-54" target="0pB-6FV18-jfpaeDJ1VC-55">
          <mxGeometry relative="1" as="geometry" />
        </mxCell>
        <mxCell id="0pB-6FV18-jfpaeDJ1VC-54" value="ProductRepository" style="html=1;whiteSpace=wrap;" vertex="1" parent="1">
          <mxGeometry x="995" y="570" width="130" height="50" as="geometry" />
        </mxCell>
        <mxCell id="0pB-6FV18-jfpaeDJ1VC-55" value="DaoRepository" style="swimlane;fontStyle=1;align=center;verticalAlign=top;childLayout=stackLayout;horizontal=1;startSize=26;horizontalStack=0;resizeParent=1;resizeParentMax=0;resizeLast=0;collapsible=1;marginBottom=0;whiteSpace=wrap;html=1;" vertex="1" parent="1">
          <mxGeometry x="1070" y="679" width="160" height="112" as="geometry" />
        </mxCell>
        <mxCell id="0pB-6FV18-jfpaeDJ1VC-56" value="" style="line;strokeWidth=1;fillColor=none;align=left;verticalAlign=middle;spacingTop=-1;spacingLeft=3;spacingRight=3;rotatable=0;labelPosition=right;points=[];portConstraint=eastwest;strokeColor=inherit;" vertex="1" parent="0pB-6FV18-jfpaeDJ1VC-55">
          <mxGeometry y="26" width="160" height="8" as="geometry" />
        </mxCell>
        <mxCell id="0pB-6FV18-jfpaeDJ1VC-57" value="+ save()" style="text;strokeColor=none;fillColor=none;align=left;verticalAlign=top;spacingLeft=4;spacingRight=4;overflow=hidden;rotatable=0;points=[[0,0.5],[1,0.5]];portConstraint=eastwest;whiteSpace=wrap;html=1;" vertex="1" parent="0pB-6FV18-jfpaeDJ1VC-55">
          <mxGeometry y="34" width="160" height="26" as="geometry" />
        </mxCell>
        <mxCell id="0pB-6FV18-jfpaeDJ1VC-58" value="+ remove()" style="text;strokeColor=none;fillColor=none;align=left;verticalAlign=top;spacingLeft=4;spacingRight=4;overflow=hidden;rotatable=0;points=[[0,0.5],[1,0.5]];portConstraint=eastwest;whiteSpace=wrap;html=1;" vertex="1" parent="0pB-6FV18-jfpaeDJ1VC-55">
          <mxGeometry y="60" width="160" height="26" as="geometry" />
        </mxCell>
        <mxCell id="0pB-6FV18-jfpaeDJ1VC-59" value="+ find()" style="text;strokeColor=none;fillColor=none;align=left;verticalAlign=top;spacingLeft=4;spacingRight=4;overflow=hidden;rotatable=0;points=[[0,0.5],[1,0.5]];portConstraint=eastwest;whiteSpace=wrap;html=1;" vertex="1" parent="0pB-6FV18-jfpaeDJ1VC-55">
          <mxGeometry y="86" width="160" height="26" as="geometry" />
        </mxCell>
        <mxCell id="0pB-6FV18-jfpaeDJ1VC-60" style="edgeStyle=orthogonalEdgeStyle;rounded=0;orthogonalLoop=1;jettySize=auto;html=1;exitX=1;exitY=0.5;exitDx=0;exitDy=0;entryX=0;entryY=0.5;entryDx=0;entryDy=0;endArrow=open;endFill=0;" edge="1" parent="1" source="0pB-6FV18-jfpaeDJ1VC-22" target="0pB-6FV18-jfpaeDJ1VC-52">
          <mxGeometry relative="1" as="geometry" />
        </mxCell>
        <mxCell id="0pB-6FV18-jfpaeDJ1VC-61" style="edgeStyle=orthogonalEdgeStyle;rounded=0;orthogonalLoop=1;jettySize=auto;html=1;exitX=1;exitY=0.5;exitDx=0;exitDy=0;entryX=0;entryY=0.5;entryDx=0;entryDy=0;endArrow=open;endFill=0;" edge="1" parent="1" source="0pB-6FV18-jfpaeDJ1VC-22" target="0pB-6FV18-jfpaeDJ1VC-54">
          <mxGeometry relative="1" as="geometry" />
        </mxCell>
      </root>
    </mxGraphModel>
  </diagram>
</mxfile>
